<svg version="1.2" xmlns="http://www.w3.org/2000/svg" viewBox="0 0 1080 1080" width="1080" height="1080">
	<style>
		.s0 { fill: #251c17 } 
		.s1 { fill: #ff8e4a } 
	</style>
	<path id="Shape 1" fill-rule="evenodd" class="s0" d="m194 0h692c107.14 0 194 86.86 194 194v692c0 107.14-86.86 194-194 194h-692c-107.14 0-194-86.86-194-194v-692c0-107.14 86.86-194 194-194z"/>
	<path id="Rr" class="s1" aria-label="Rr"  d="m189.6 806v-532.8h197.4q21.2 0 41.2 3 20.5 2.6 38.3 9.7 18.2 7.1 33.1 19.4 14.9 12 25.6 31 11.2 19.1 17.1 45.6 6 26.5 6 62.3 0 23.9-4.1 43-3.7 18.6-10.4 33.2-6.3 14.5-14.9 25.4-8.2 10.8-16.7 18.6-20.4 18-46.1 25.1v0.7l111.9 215.8h-101.9l-99.2-195.6h-88.1v195.6zm89.2-280h107.4q69.9 0 69.9-87 0-22.8-5.2-38.5-4.8-16-14.5-25.7-9.3-9.7-22.7-13.8-13.3-4.5-29.7-4.5h-105.2zm382.9 280v-393.9h76.2l5.2 42.9q29-19 65-31.3 36.1-12.3 81-14.6l-0.7 91.9q-46.5 0.7-80.7 4.8-33.8 3.7-57.9 13.5v286.7z"/>
</svg>